<?xml version="1.0" encoding="UTF-8" standalone="no"?>
<!-- Created with Inkscape (http://www.inkscape.org/) -->

<svg
   width="250mm"
   height="300mm"
   viewBox="0 0 250 300"
   version="1.1"
   id="svg1"
   inkscape:version="1.4 (86a8ad7, 2024-10-11)"
   sodipodi:docname="Vježba2_StanicTea.svg"
   xmlns:inkscape="http://www.inkscape.org/namespaces/inkscape"
   xmlns:sodipodi="http://sodipodi.sourceforge.net/DTD/sodipodi-0.dtd"
   xmlns:xlink="http://www.w3.org/1999/xlink"
   xmlns="http://www.w3.org/2000/svg"
   xmlns:svg="http://www.w3.org/2000/svg">
  <sodipodi:namedview
     id="namedview1"
     pagecolor="#ffffff"
     bordercolor="#000000"
     borderopacity="0.25"
     inkscape:showpageshadow="2"
     inkscape:pageopacity="0.0"
     inkscape:pagecheckerboard="0"
     inkscape:deskcolor="#d1d1d1"
     inkscape:document-units="mm"
     showgrid="true"
     inkscape:zoom="0.68862935"
     inkscape:cx="658.55456"
     inkscape:cy="570.69888"
     inkscape:window-width="1920"
     inkscape:window-height="991"
     inkscape:window-x="-9"
     inkscape:window-y="-9"
     inkscape:window-maximized="1"
     inkscape:current-layer="layer1">
    <inkscape:grid
       id="grid1"
       units="mm"
       originx="0"
       originy="0"
       spacingx="0.99999999"
       spacingy="0.99999999"
       empcolor="#0099e5"
       empopacity="0.30196078"
       color="#0099e5"
       opacity="0.14901961"
       empspacing="10"
       enabled="true"
       visible="true" />
  </sodipodi:namedview>
  <defs
     id="defs1">
    <linearGradient
       id="linearGradient48"
       inkscape:collect="always">
      <stop
         style="stop-color:#000000;stop-opacity:1;"
         offset="0"
         id="stop48" />
      <stop
         style="stop-color:#000000;stop-opacity:0;"
         offset="1"
         id="stop49" />
    </linearGradient>
    <inkscape:path-effect
       effect="bspline"
       id="path-effect2"
       is_visible="true"
       lpeversion="1.3"
       weight="33.333333"
       steps="2"
       helper_size="0"
       apply_no_weight="true"
       apply_with_weight="true"
       only_selected="false"
       uniform="false" />
    <inkscape:path-effect
       effect="bspline"
       id="path-effect1"
       is_visible="true"
       lpeversion="1.3"
       weight="33.333333"
       steps="2"
       helper_size="0"
       apply_no_weight="true"
       apply_with_weight="true"
       only_selected="false"
       uniform="false" />
    <clipPath
       clipPathUnits="userSpaceOnUse"
       id="clipPath45">
      <path
         d="m 116.8935,92.26133 c 0,12.43675 -3.85849,22.22079 -11.57548,29.35212 -7.958145,7.40693 -19.171896,11.1104 -33.641252,11.1104 -9.301729,0 -19.558468,-1.23352 -24.622744,-2.16369 L 48.732506,92.93312 C 48.284643,83.08018 46.322398,67.568233 45.151069,50.239456 52.6269,49.171482 61.58267,50.558581 69.71307,50.558581 c 14.503808,0 25.855359,3.376181 34.05466,10.128549 8.75051,7.234677 13.12577,17.75941 13.12577,31.5742 z m -21.187266,6.356181 c 0,-5.064276 -1.636416,-8.802193 -4.909246,-11.213751 -2.721618,-1.998149 -6.201153,-2.911097 -10.438606,-2.738842 l -0.723469,32.401022 c 4.40971,-0.27561 8.009822,-1.70532 10.80034,-4.28913 3.513989,-3.20393 5.270981,-7.9237 5.270981,-14.159299 z M 207.78771,50.416971 c -0.48232,7.234676 -4.64652,21.966221 -5.57669,41.12089 -0.48231,11.782189 1.84548,26.198419 1.60432,40.943379 -9.94851,0.48264 -17.20989,-0.12807 -24.47007,0.38422 l 2.55698,-25.87639 -18.24172,26.25154 -19.68866,-26.04484 2.55698,24.90125 -25.51937,-0.76843 c -0.24116,-7.88925 3.13593,-21.22172 2.44691,-39.997429 -0.48231,-10.817569 -4.43455,-25.095994 -5.70923,-40.529973 l 32.68424,1.152652 c 1.03353,2.514912 2.80775,6.580111 5.32266,12.195598 1.92925,3.996299 4.56474,8.716066 7.90647,14.159299 1.48139,-2.342658 4.203,-7.183001 8.16485,-14.521032 1.41249,-2.721618 3.22116,-6.66624 5.42601,-11.833865 z"
         id="path46"
         style="font-size:105.833px;font-family:'Showcard Gothic';-inkscape-font-specification:'Showcard Gothic';stroke:#000000;stroke-width:0.705556"
         aria-label="DM"
         sodipodi:nodetypes="scscccscssccccsccccccccccccccccc"
         inkscape:label="tekst" />
    </clipPath>
    <clipPath
       clipPathUnits="userSpaceOnUse"
       id="clipPath46">
      <path
         d="m 116.8935,92.26133 c 0,12.43675 -3.85849,22.22079 -11.57548,29.35212 -7.958145,7.40693 -19.171896,11.1104 -33.641252,11.1104 -9.301729,0 -19.558468,-1.23352 -24.622744,-2.16369 L 48.732506,92.93312 C 48.284643,83.08018 46.322398,67.568233 45.151069,50.239456 52.6269,49.171482 61.58267,50.558581 69.71307,50.558581 c 14.503808,0 25.855359,3.376181 34.05466,10.128549 8.75051,7.234677 13.12577,17.75941 13.12577,31.5742 z m -21.187266,6.356181 c 0,-5.064276 -1.636416,-8.802193 -4.909246,-11.213751 -2.721618,-1.998149 -6.201153,-2.911097 -10.438606,-2.738842 l -0.723469,32.401022 c 4.40971,-0.27561 8.009822,-1.70532 10.80034,-4.28913 3.513989,-3.20393 5.270981,-7.9237 5.270981,-14.159299 z M 207.78771,50.416971 c -0.48232,7.234676 -4.64652,21.966221 -5.57669,41.12089 -0.48231,11.782189 1.84548,26.198419 1.60432,40.943379 -9.94851,0.48264 -17.20989,-0.12807 -24.47007,0.38422 l 2.55698,-25.87639 -18.24172,26.25154 -19.68866,-26.04484 2.55698,24.90125 -25.51937,-0.76843 c -0.24116,-7.88925 3.13593,-21.22172 2.44691,-39.997429 -0.48231,-10.817569 -4.43455,-25.095994 -5.70923,-40.529973 l 32.68424,1.152652 c 1.03353,2.514912 2.80775,6.580111 5.32266,12.195598 1.92925,3.996299 4.56474,8.716066 7.90647,14.159299 1.48139,-2.342658 4.203,-7.183001 8.16485,-14.521032 1.41249,-2.721618 3.22116,-6.66624 5.42601,-11.833865 z"
         id="path47"
         style="font-size:105.833px;font-family:'Showcard Gothic';-inkscape-font-specification:'Showcard Gothic';stroke:#000000;stroke-width:0.705556"
         aria-label="DM"
         sodipodi:nodetypes="scscccscssccccsccccccccccccccccc"
         inkscape:label="tekst" />
    </clipPath>
    <clipPath
       clipPathUnits="userSpaceOnUse"
       id="clipPath47">
      <path
         d="m 116.8935,92.26133 c 0,12.43675 -3.85849,22.22079 -11.57548,29.35212 -7.958145,7.40693 -19.171896,11.1104 -33.641252,11.1104 -9.301729,0 -19.558468,-1.23352 -24.622744,-2.16369 L 48.732506,92.93312 C 48.284643,83.08018 46.322398,67.568233 45.151069,50.239456 52.6269,49.171482 61.58267,50.558581 69.71307,50.558581 c 14.503808,0 25.855359,3.376181 34.05466,10.128549 8.75051,7.234677 13.12577,17.75941 13.12577,31.5742 z m -21.187266,6.356181 c 0,-5.064276 -1.636416,-8.802193 -4.909246,-11.213751 -2.721618,-1.998149 -6.201153,-2.911097 -10.438606,-2.738842 l -0.723469,32.401022 c 4.40971,-0.27561 8.009822,-1.70532 10.80034,-4.28913 3.513989,-3.20393 5.270981,-7.9237 5.270981,-14.159299 z M 207.78771,50.416971 c -0.48232,7.234676 -4.64652,21.966221 -5.57669,41.12089 -0.48231,11.782189 1.84548,26.198419 1.60432,40.943379 -9.94851,0.48264 -17.20989,-0.12807 -24.47007,0.38422 l 2.55698,-25.87639 -18.24172,26.25154 -19.68866,-26.04484 2.55698,24.90125 -25.51937,-0.76843 c -0.24116,-7.88925 3.13593,-21.22172 2.44691,-39.997429 -0.48231,-10.817569 -4.43455,-25.095994 -5.70923,-40.529973 l 32.68424,1.152652 c 1.03353,2.514912 2.80775,6.580111 5.32266,12.195598 1.92925,3.996299 4.56474,8.716066 7.90647,14.159299 1.48139,-2.342658 4.203,-7.183001 8.16485,-14.521032 1.41249,-2.721618 3.22116,-6.66624 5.42601,-11.833865 z"
         id="path48"
         style="font-size:105.833px;font-family:'Showcard Gothic';-inkscape-font-specification:'Showcard Gothic';stroke:#000000;stroke-width:0.705556"
         aria-label="DM"
         sodipodi:nodetypes="scscccscssccccsccccccccccccccccc"
         inkscape:label="tekst" />
    </clipPath>
    <linearGradient
       inkscape:collect="always"
       xlink:href="#linearGradient48"
       id="linearGradient49"
       x1="44.777009"
       y1="91.660996"
       x2="208.16609"
       y2="91.660996"
       gradientUnits="userSpaceOnUse" />
  </defs>
  <g
     inkscape:label="Sloj 1"
     inkscape:groupmode="layer"
     id="layer1">
    <path
       style="fill:none;stroke:#000000;stroke-width:2.11667;stroke-dasharray:none;stroke-opacity:0.5"
       d="M 64.164294,152.46054 C 55.455369,134.40233 46.746441,116.34411 46.362304,94.955767 45.978166,73.567424 53.918498,48.849938 61.85899,24.131956"
       id="path1"
       inkscape:path-effect="#path-effect1"
       inkscape:original-d="M 64.164294,152.46054 C 55.455367,134.40233 46.746443,116.34411 38.037516,98.285899 45.978167,73.567424 53.918498,48.849938 61.85899,24.131956"
       inkscape:label="Krivulja1"
       clip-path="url(#clipPath47)" />
    <path
       style="fill:none;stroke:#000000;stroke-width:0.705556;stroke-dasharray:none;stroke-opacity:0.8"
       d="m 189.03493,152.07633 c 6.65977,-14.08797 13.31953,-28.17594 11.78257,-38.48584 -1.53697,-10.3099 -11.27028,-16.841458 -11.14211,-30.353307 0.12817,-13.511848 10.11762,-34.003027 20.10727,-54.49462"
       id="path2"
       inkscape:path-effect="#path-effect2"
       inkscape:original-d="m 189.03493,152.07633 c 6.65976,-14.08797 13.31953,-28.17594 19.9793,-42.26391 -9.7337,-6.53183 -19.46701,-13.06339 -29.20052,-19.595085 9.98985,-20.492 19.9793,-40.983179 29.96895,-61.474772"
       inkscape:label="Krivulja2"
       clip-path="url(#clipPath46)" />
    <g
       id="g44"
       inkscape:label="blend"
       clip-path="url(#clipPath45)">
      <path
         d="m 189.035,152.076 c 6.66,-14.088 13.319,-28.176 11.782,-38.486 -0.952,-6.388 -5.052,-11.326 -8.002,-17.3737 -1.811,-3.7113 -3.188,-7.8404 -3.14,-12.9791 0.129,-13.5119 10.118,-34.003 20.108,-54.4946"
         style="fill:none;stroke:#000000;stroke-width:0.705556;stroke-dasharray:none;stroke-opacity:0.8"
         id="path3" />
      <path
         d="m 188.961,152.077 c 6.652,-14.087 13.304,-28.174 11.766,-38.486 -0.953,-6.389 -5.051,-11.328 -7.999,-17.3755 -1.81,-3.7117 -3.186,-7.841 -3.137,-12.9794 0.129,-13.5145 10.116,-34.0052 20.104,-54.4963"
         style="fill:none;stroke:#000000;stroke-width:0.705556;stroke-dasharray:none;stroke-opacity:0.8"
         id="path4" />
      <path
         d="m 188.738,152.077 c 6.63,-14.084 13.259,-28.168 11.718,-38.485 -0.954,-6.388 -5.046,-11.33 -7.99,-17.3787 -1.806,-3.713 -3.18,-7.8431 -3.13,-12.9806 0.133,-13.5225 10.114,-34.0116 20.095,-54.5011"
         style="fill:none;stroke:#000000;stroke-width:0.705556;stroke-dasharray:none;stroke-opacity:0.8"
         id="path5" />
      <path
         d="m 188.366,152.078 c 6.593,-14.078 13.185,-28.157 11.638,-38.484 -0.955,-6.388 -5.038,-11.334 -7.973,-17.3845 -1.802,-3.715 -3.17,-7.8463 -3.119,-12.9825 0.139,-13.5356 10.109,-34.0222 20.079,-54.5091"
         style="fill:none;stroke:#000000;stroke-width:0.705556;stroke-dasharray:none;stroke-opacity:0.8"
         id="path6" />
      <path
         d="m 187.846,152.08 c 6.54,-14.072 13.079,-28.144 11.526,-38.484 -0.958,-6.386 -5.028,-11.338 -7.951,-17.3917 -1.794,-3.7179 -3.156,-7.851 -3.103,-12.9852 0.148,-13.5541 10.102,-34.0371 20.057,-54.5204"
         style="fill:none;stroke:#000000;stroke-width:0.705556;stroke-dasharray:none;stroke-opacity:0.8"
         id="path7" />
      <path
         d="m 187.178,152.082 c 6.472,-14.063 12.944,-28.125 11.381,-38.482 -0.961,-6.386 -5.014,-11.345 -7.922,-17.4025 -1.785,-3.7216 -3.138,-7.8569 -3.082,-12.9885 0.158,-13.578 10.093,-34.0563 20.028,-54.535"
         style="fill:none;stroke:#000000;stroke-width:0.705556;stroke-dasharray:none;stroke-opacity:0.8"
         id="path8" />
      <path
         d="m 186.361,152.085 c 6.389,-14.052 12.778,-28.104 11.204,-38.481 -0.965,-6.384 -4.997,-11.353 -7.887,-17.4147 -1.773,-3.7262 -3.115,-7.8643 -3.056,-12.9927 0.171,-13.6071 10.082,-34.0797 19.993,-54.5528"
         style="fill:none;stroke:#000000;stroke-width:0.705556;stroke-dasharray:none;stroke-opacity:0.8"
         id="path9" />
      <path
         d="m 185.395,152.088 c 6.292,-14.039 12.583,-28.077 10.995,-38.479 -0.968,-6.383 -4.976,-11.363 -7.844,-17.4295 -1.76,-3.7315 -3.09,-7.8728 -3.026,-12.9976 0.187,-13.6415 10.069,-34.1074 19.951,-54.5737"
         style="fill:none;stroke:#000000;stroke-width:0.705556;stroke-dasharray:none;stroke-opacity:0.8"
         id="path10" />
      <path
         d="m 184.281,152.091 c 6.179,-14.023 12.357,-28.047 10.754,-38.477 -0.974,-6.38 -4.953,-11.373 -7.796,-17.4457 -1.745,-3.7378 -3.059,-7.8828 -2.991,-13.0033 0.204,-13.6811 10.053,-34.1394 19.903,-54.598"
         style="fill:none;stroke:#000000;stroke-width:0.705556;stroke-dasharray:none;stroke-opacity:0.8"
         id="path11" />
      <path
         d="m 183.018,152.095 c 6.051,-14.006 12.102,-28.012 10.481,-38.474 -0.979,-6.378 -4.927,-11.386 -7.741,-17.4655 -1.727,-3.7448 -3.025,-7.894 -2.952,-13.0097 0.225,-13.7261 10.037,-34.1755 19.849,-54.6254"
         style="fill:none;stroke:#000000;stroke-width:0.705556;stroke-dasharray:none;stroke-opacity:0.8"
         id="path12" />
      <path
         d="m 181.607,152.099 c 5.908,-13.987 11.816,-27.974 10.175,-38.471 -0.985,-6.376 -4.897,-11.4 -7.679,-17.4867 -1.708,-3.7527 -2.987,-7.9067 -2.908,-13.0169 0.247,-13.7764 10.017,-34.216 19.788,-54.6561"
         style="fill:none;stroke:#000000;stroke-width:0.705556;stroke-dasharray:none;stroke-opacity:0.8"
         id="path13" />
      <path
         d="m 180.047,152.104 c 5.75,-13.966 11.5,-27.931 9.837,-38.468 -0.992,-6.373 -4.864,-11.415 -7.611,-17.5105 -1.686,-3.7613 -2.945,-7.9205 -2.859,-13.0248 0.272,-13.8319 9.997,-34.2608 19.721,-54.69"
         style="fill:none;stroke:#000000;stroke-width:0.705556;stroke-dasharray:none;stroke-opacity:0.8"
         id="path14" />
      <path
         d="m 178.338,152.109 c 5.578,-13.942 11.155,-27.885 9.468,-38.465 -1,-6.369 -4.829,-11.431 -7.537,-17.5357 -1.662,-3.7709 -2.898,-7.9358 -2.806,-13.0335 0.3,-13.8928 9.974,-34.3098 19.648,-54.7272"
         style="fill:none;stroke:#000000;stroke-width:0.705556;stroke-dasharray:none;stroke-opacity:0.8"
         id="path15" />
      <path
         d="m 176.481,152.115 c 5.39,-13.917 10.779,-27.834 9.066,-38.461 -1.008,-6.366 -4.79,-11.45 -7.456,-17.5645 -1.636,-3.7812 -2.848,-7.9523 -2.748,-13.0429 0.33,-13.9589 9.949,-34.363 19.568,-54.7676"
         style="fill:none;stroke:#000000;stroke-width:0.705556;stroke-dasharray:none;stroke-opacity:0.8"
         id="path16" />
      <path
         d="m 174.475,152.121 c 5.187,-13.89 10.374,-27.78 8.633,-38.457 -1.017,-6.363 -4.749,-11.47 -7.369,-17.5947 -1.609,-3.7924 -2.794,-7.9703 -2.686,-13.0532 0.362,-14.0303 9.922,-34.4205 19.482,-54.8111"
         style="fill:none;stroke:#000000;stroke-width:0.705556;stroke-dasharray:none;stroke-opacity:0.8"
         id="path17" />
      <path
         d="m 172.321,152.128 c 4.969,-13.861 9.937,-27.721 8.166,-38.454 -1.026,-6.358 -4.703,-11.49 -7.275,-17.6265 -1.579,-3.8043 -2.735,-7.9894 -2.619,-13.0641 0.398,-14.107 9.894,-34.4823 19.39,-54.858"
         style="fill:none;stroke:#000000;stroke-width:0.705556;stroke-dasharray:none;stroke-opacity:0.8"
         id="path18" />
      <path
         d="m 170.018,152.135 c 4.736,-13.829 9.472,-27.659 7.668,-38.449 -1.036,-6.354 -4.655,-11.513 -7.174,-17.6617 -1.547,-3.8172 -2.673,-8.01 -2.548,-13.0758 0.435,-14.1891 9.863,-34.5484 19.291,-54.9081"
         style="fill:none;stroke:#000000;stroke-width:0.705556;stroke-dasharray:none;stroke-opacity:0.8"
         id="path19" />
      <path
         d="m 167.567,152.142 c 4.488,-13.796 8.975,-27.591 7.137,-38.444 -1.047,-6.349 -4.604,-11.536 -7.068,-17.6985 -1.512,-3.8308 -2.606,-8.0318 -2.47,-13.0882 0.473,-14.2764 9.829,-34.6187 19.185,-54.9614"
         style="fill:none;stroke:#000000;stroke-width:0.705556;stroke-dasharray:none;stroke-opacity:0.8"
         id="path20" />
      <path
         d="m 164.967,152.15 c 4.225,-13.76 8.449,-27.521 6.575,-38.439 -1.059,-6.345 -4.55,-11.562 -6.955,-17.7377 -1.477,-3.8453 -2.536,-8.0551 -2.39,-13.1015 0.516,-14.369 9.795,-34.6932 19.074,-55.0179"
         style="fill:none;stroke:#000000;stroke-width:0.705556;stroke-dasharray:none;stroke-opacity:0.8"
         id="path21" />
      <path
         d="m 162.219,152.159 c 3.946,-13.723 7.892,-27.446 5.98,-38.434 -1.071,-6.34 -4.493,-11.589 -6.835,-17.7794 -1.439,-3.8606 -2.462,-8.0796 -2.305,-13.1155 0.56,-14.4669 9.758,-34.7721 18.957,-55.0777"
         style="fill:none;stroke:#000000;stroke-width:0.705556;stroke-dasharray:none;stroke-opacity:0.8"
         id="path22" />
      <path
         d="m 159.322,152.168 c 3.653,-13.684 7.306,-27.368 5.353,-38.428 -1.084,-6.335 -4.432,-11.618 -6.709,-17.8237 -1.399,-3.8767 -2.383,-8.1054 -2.214,-13.1302 0.606,-14.57 9.719,-34.8551 18.832,-55.1406"
         style="fill:none;stroke:#000000;stroke-width:0.705556;stroke-dasharray:none;stroke-opacity:0.8"
         id="path23" />
      <path
         d="m 156.276,152.177 c 3.345,-13.642 6.69,-27.284 4.694,-38.422 -1.097,-6.329 -4.368,-11.647 -6.576,-17.8694 -1.356,-3.8937 -2.301,-8.1326 -2.119,-13.1458 0.655,-14.6784 9.678,-34.9424 18.701,-55.2068"
         style="fill:none;stroke:#000000;stroke-width:0.705556;stroke-dasharray:none;stroke-opacity:0.8"
         id="path24" />
      <path
         d="m 153.082,152.187 c 3.022,-13.599 6.044,-27.198 4.003,-38.416 -1.111,-6.323 -4.302,-11.678 -6.437,-17.9177 -1.312,-3.9114 -2.214,-8.1611 -2.02,-13.162 0.707,-14.7922 9.635,-35.034 18.564,-55.2762"
         style="fill:none;stroke:#000000;stroke-width:0.705556;stroke-dasharray:none;stroke-opacity:0.8"
         id="path25" />
      <path
         d="m 149.739,152.197 c 2.684,-13.553 5.367,-27.106 3.28,-38.409 -1.126,-6.317 -4.232,-11.711 -6.292,-17.9684 -1.266,-3.9301 -2.123,-8.1909 -1.915,-13.179 0.76,-14.9113 9.59,-35.1299 18.42,-55.349"
         style="fill:none;stroke:#000000;stroke-width:0.705556;stroke-dasharray:none;stroke-opacity:0.8"
         id="path26" />
      <path
         d="m 146.248,152.208 c 2.33,-13.506 4.661,-27.012 2.524,-38.403 -1.141,-6.31 -4.159,-11.745 -6.14,-18.0207 -1.217,-3.9495 -2.029,-8.222 -1.806,-13.1967 0.816,-15.0356 9.543,-35.2301 18.27,-55.4249"
         style="fill:none;stroke:#000000;stroke-width:0.705556;stroke-dasharray:none;stroke-opacity:0.8"
         id="path27" />
      <path
         d="m 142.608,152.219 c 1.962,-13.456 3.924,-26.912 1.737,-38.395 -1.158,-6.305 -4.083,-11.781 -5.982,-18.0764 -1.166,-3.9698 -1.93,-8.2546 -1.693,-13.2153 0.875,-15.1652 9.495,-35.3344 18.114,-55.504"
         style="fill:none;stroke:#000000;stroke-width:0.705556;stroke-dasharray:none;stroke-opacity:0.8"
         id="path28" />
      <path
         d="m 138.819,152.231 c 1.579,-13.405 3.158,-26.81 0.917,-38.388 -1.174,-6.298 -4.003,-11.818 -5.816,-18.1336 -1.114,-3.9909 -1.827,-8.2884 -1.575,-13.2346 0.936,-15.3001 9.444,-35.4431 17.951,-55.5864"
         style="fill:none;stroke:#000000;stroke-width:0.705556;stroke-dasharray:none;stroke-opacity:0.8"
         id="path29" />
      <path
         d="m 134.882,152.243 c 1.181,-13.351 2.361,-26.703 0.065,-38.38 -1.191,-6.291 -3.921,-11.857 -5.644,-18.1934 -1.06,-4.0128 -1.721,-8.3235 -1.453,-13.2546 1,-15.4403 9.391,-35.5559 17.783,-55.6719"
         style="fill:none;stroke:#000000;stroke-width:0.705556;stroke-dasharray:none;stroke-opacity:0.8"
         id="path30" />
      <path
         d="m 130.797,152.256 c 0.767,-13.296 1.534,-26.592 -0.819,-38.373 -1.21,-6.283 -3.836,-11.896 -5.467,-18.2546 -1.003,-4.0356 -1.61,-8.3599 -1.326,-13.2754 1.066,-15.5858 9.337,-35.6731 17.608,-55.7608"
         style="fill:none;stroke:#000000;stroke-width:0.705556;stroke-dasharray:none;stroke-opacity:0.8"
         id="path31" />
      <path
         d="m 126.562,152.269 c 0.339,-13.238 0.678,-26.477 -1.734,-38.365 -1.229,-6.275 -3.748,-11.937 -5.283,-18.3184 -0.944,-4.0591 -1.496,-8.3977 -1.194,-13.2969 1.134,-15.7366 9.28,-35.7945 17.426,-55.8528"
         style="fill:none;stroke:#000000;stroke-width:0.705556;stroke-dasharray:none;stroke-opacity:0.8"
         id="path32" />
      <path
         d="m 122.18,152.282 c -0.105,-13.178 -0.21,-26.357 -2.684,-38.356 -1.247,-6.267 -3.656,-11.98 -5.091,-18.3846 -0.884,-4.0835 -1.377,-8.4368 -1.057,-13.3192 1.204,-15.8927 9.22,-35.9203 17.237,-55.9481"
         style="fill:none;stroke:#000000;stroke-width:0.705556;stroke-dasharray:none;stroke-opacity:0.8"
         id="path33" />
      <path
         d="m 117.648,152.296 c -0.563,-13.117 -1.126,-26.234 -3.663,-38.347 -1.268,-6.259 -3.562,-12.025 -4.895,-18.4533 -0.82,-4.1088 -1.254,-8.4773 -0.916,-13.3423 1.277,-16.0541 9.16,-36.0502 17.043,-56.0466"
         style="fill:none;stroke:#000000;stroke-width:0.705556;stroke-dasharray:none;stroke-opacity:0.8"
         id="path34" />
      <path
         d="m 112.969,152.31 c -1.037,-13.053 -2.074,-26.106 -4.677,-38.337 -1.288,-6.251 -3.464,-12.071 -4.69,-18.5246 -0.756,-4.1348 -1.128,-8.5189 -0.771,-13.3661 1.353,-16.2207 9.097,-36.1843 16.842,-56.1483"
         style="fill:none;stroke:#000000;stroke-width:0.705556;stroke-dasharray:none;stroke-opacity:0.8"
         id="path35" />
      <path
         d="m 108.14,152.325 c -1.525,-12.987 -3.051,-25.975 -5.721,-38.328 -1.31,-6.242 -3.3632,-12.118 -4.4803,-18.5973 C 97.2498,91.238 96.9423,86.8376 97.3188,82.009 98.7489,65.6163 106.351,45.6862 113.953,25.7557"
         style="fill:none;stroke:#000000;stroke-width:0.705556;stroke-dasharray:none;stroke-opacity:0.8"
         id="path36" />
      <path
         d="m 103.163,152.341 c -2.029,-12.92 -4.0577,-25.84 -6.7979,-38.319 C 95.0334,107.79 93.1058,101.856 92.1015,95.3494 91.4816,91.16 91.2399,86.743 91.6366,81.9335 93.1468,65.3635 100.602,45.4679 108.058,25.5719"
         style="fill:none;stroke:#000000;stroke-width:0.705556;stroke-dasharray:none;stroke-opacity:0.8"
         id="path37" />
      <path
         d="m 98.0376,152.356 c -2.5475,-12.85 -5.0951,-25.7 -7.9071,-38.308 -1.3543,-6.223 -3.1523,-12.217 -4.0404,-18.7503 -0.5489,-4.2179 -0.7227,-8.6522 -0.3053,-13.442 1.5927,-16.7525 8.8968,-36.6126 16.2012,-56.473"
         style="fill:none;stroke:#000000;stroke-width:0.705556;stroke-dasharray:none;stroke-opacity:0.8"
         id="path38" />
      <path
         d="M 92.7635,152.373 C 89.6823,139.594 86.6011,126.816 83.7152,114.074 82.3376,107.861 80.673,101.806 79.9044,95.2445 79.4287,90.9972 79.3246,86.5452 79.7634,81.7756 81.441,64.8353 88.5894,45.0118 95.738,25.1879"
         style="fill:none;stroke:#000000;stroke-width:0.705556;stroke-dasharray:none;stroke-opacity:0.8"
         id="path39" />
      <path
         d="M 87.3408,152.389 C 83.7109,139.685 80.0811,126.98 77.1192,114.101 75.7176,107.898 74.1902,101.78 73.5445,95.1897 73.1439,90.9122 73.1116,86.4421 73.5724,81.6933 75.3373,64.5598 82.3257,44.7739 89.3142,24.9877"
         style="fill:none;stroke:#000000;stroke-width:0.705556;stroke-dasharray:none;stroke-opacity:0.8"
         id="path40" />
      <path
         d="M 81.7695,152.406 C 77.5759,139.778 73.3824,127.149 70.3424,114.129 68.9162,107.936 67.5298,101.754 67.0103,95.1335 66.687,90.825 66.7283,86.3362 67.2117,81.6087 69.0663,64.2768 75.8903,44.5296 82.7144,24.782"
         style="fill:none;stroke:#000000;stroke-width:0.705556;stroke-dasharray:none;stroke-opacity:0.8"
         id="path41" />
      <path
         d="m 76.0497,152.424 c -4.7723,-12.551 -9.5447,-25.102 -12.6648,-38.266 -1.4514,-6.183 -2.6931,-12.431 -3.083,-19.0823 -0.244,-4.3403 -0.127,-8.8483 0.3796,-13.5539 1.9466,-17.5355 8.6018,-37.2431 15.2571,-56.951"
         style="fill:none;stroke:#000000;stroke-width:0.705556;stroke-dasharray:none;stroke-opacity:0.8"
         id="path42" />
      <path
         d="M 70.1813,152.442 C 64.8152,139.971 59.4491,127.5 56.2468,114.188 c -1.4774,-6.173 -2.5706,-12.489 -2.8276,-19.1715 -0.1626,-4.373 0.032,-8.9007 0.5624,-13.5837 2.041,-17.7446 8.5231,-37.4115 15.0052,-57.0787"
         style="fill:none;stroke:#000000;stroke-width:0.705556;stroke-dasharray:none;stroke-opacity:0.8"
         id="path43" />
      <path
         d="M 64.1643,152.461 C 58.1894,140.071 52.2145,127.682 48.9279,114.218 47.4239,108.057 46.4829,101.67 46.3623,94.9558 46.2832,90.5493 46.5574,86.0014 47.1121,81.3414 49.25,63.3826 55.5544,43.7574 61.859,24.132"
         style="fill:none;stroke:#000000;stroke-width:0.705556;stroke-dasharray:none;stroke-opacity:0.8"
         id="path44" />
    </g>
    <path
       d="m 116.8935,92.261331 c 0,12.436749 -3.85849,22.220789 -11.57548,29.352119 -7.958145,7.40693 -19.171896,11.1104 -33.641252,11.1104 -9.301729,0 -19.558469,-1.23352 -24.622743,-2.16369 l 1.67848,-37.627039 C 48.284644,83.080179 46.322397,67.568233 45.151068,50.239457 52.626901,49.171481 61.58267,50.55858 69.71307,50.55858 c 14.503807,0 25.85536,3.376183 34.05466,10.128549 8.75051,7.234677 13.12577,17.759411 13.12577,31.574202 z m -21.187266,6.35618 c 0,-5.064275 -1.636415,-8.802192 -4.909246,-11.213751 -2.721617,-1.998149 -6.201152,-2.911096 -10.438606,-2.738842 l -0.723468,32.401022 c 4.409708,-0.27561 8.009821,-1.70532 10.80034,-4.28913 3.513987,-3.20393 5.27098,-7.9237 5.27098,-14.159299 z M 207.78771,50.41697 c -0.48232,7.234678 -4.64652,21.966221 -5.57669,41.120891 -0.48231,11.782189 1.84548,26.198419 1.60432,40.943379 -9.94851,0.48264 -17.20989,-0.12807 -24.47007,0.38422 l 2.55698,-25.87639 -18.24172,26.25154 -19.68866,-26.04484 2.55698,24.90125 -25.51937,-0.76843 c -0.24116,-7.88925 3.13593,-21.22172 2.44691,-39.997429 -0.48231,-10.817569 -4.43455,-25.095995 -5.70923,-40.529974 l 32.68424,1.152652 c 1.03353,2.514912 2.80775,6.580112 5.32266,12.1956 1.92925,3.996298 4.56474,8.716064 7.90647,14.159298 1.48139,-2.342658 4.203,-7.183002 8.16485,-14.521032 1.41249,-2.721617 3.22116,-6.666239 5.42601,-11.833866 z"
       id="path45"
       style="font-size:105.833px;font-family:'Showcard Gothic';-inkscape-font-specification:'Showcard Gothic';display:none;stroke:url(#linearGradient49);stroke-width:0.70555556;stroke-dasharray:none;stroke-linejoin:bevel"
       aria-label="DM"
       sodipodi:nodetypes="scscccscssccccsccccccccccccccccc"
       inkscape:label="Tekst" />
  </g>
</svg>
