<?xml version="1.0" encoding="UTF-8" standalone="no"?>
<!-- Created with Inkscape (http://www.inkscape.org/) -->

<svg
   width="250mm"
   height="300mm"
   viewBox="0 0 250 300"
   version="1.1"
   id="svg1"
   inkscape:version="1.4 (86a8ad7, 2024-10-11)"
   sodipodi:docname="StanicTea.svg"
   xmlns:inkscape="http://www.inkscape.org/namespaces/inkscape"
   xmlns:sodipodi="http://sodipodi.sourceforge.net/DTD/sodipodi-0.dtd"
   xmlns="http://www.w3.org/2000/svg"
   xmlns:svg="http://www.w3.org/2000/svg">
  <sodipodi:namedview
     id="namedview1"
     pagecolor="#ffffff"
     bordercolor="#000000"
     borderopacity="0.25"
     inkscape:showpageshadow="2"
     inkscape:pageopacity="0.0"
     inkscape:pagecheckerboard="0"
     inkscape:deskcolor="#d1d1d1"
     inkscape:document-units="mm"
     showgrid="true"
     inkscape:zoom="0.73964733"
     inkscape:cx="637.46597"
     inkscape:cy="625.974"
     inkscape:window-width="1920"
     inkscape:window-height="991"
     inkscape:window-x="-9"
     inkscape:window-y="-9"
     inkscape:window-maximized="1"
     inkscape:current-layer="layer1">
    <inkscape:grid
       id="grid1"
       units="mm"
       originx="0"
       originy="0"
       spacingx="0.99999999"
       spacingy="0.99999999"
       empcolor="#0099e5"
       empopacity="0.30196078"
       color="#0099e5"
       opacity="0.14901961"
       empspacing="10"
       enabled="true"
       visible="true" />
  </sodipodi:namedview>
  <defs
     id="defs1">
    <inkscape:path-effect
       effect="bspline"
       id="path-effect4"
       is_visible="true"
       lpeversion="1.3"
       weight="33.333333"
       steps="2"
       helper_size="0"
       apply_no_weight="true"
       apply_with_weight="true"
       only_selected="false"
       uniform="false" />
    <inkscape:path-effect
       effect="bspline"
       id="path-effect3"
       is_visible="true"
       lpeversion="1.3"
       weight="33.333333"
       steps="2"
       helper_size="0"
       apply_no_weight="true"
       apply_with_weight="true"
       only_selected="false"
       uniform="false" />
    <inkscape:path-effect
       effect="bspline"
       id="path-effect2"
       is_visible="true"
       lpeversion="1.3"
       weight="33.333333"
       steps="2"
       helper_size="0"
       apply_no_weight="true"
       apply_with_weight="true"
       only_selected="false"
       uniform="false" />
    <inkscape:path-effect
       effect="bspline"
       id="path-effect1"
       is_visible="true"
       lpeversion="1.3"
       weight="33.333333"
       steps="2"
       helper_size="0"
       apply_no_weight="true"
       apply_with_weight="true"
       only_selected="false"
       uniform="false" />
    <clipPath
       clipPathUnits="userSpaceOnUse"
       id="clipPath45">
      <path
         d="m 116.8935,92.26133 c 0,12.43675 -3.85849,22.22079 -11.57548,29.35212 -7.958145,7.40693 -19.171896,11.1104 -33.641252,11.1104 -9.301729,0 -19.558468,-1.23352 -24.622744,-2.16369 L 48.732506,92.93312 C 48.284643,83.08018 46.322398,67.568233 45.151069,50.239456 52.6269,49.171482 61.58267,50.558581 69.71307,50.558581 c 14.503808,0 25.855359,3.376181 34.05466,10.128549 8.75051,7.234677 13.12577,17.75941 13.12577,31.5742 z m -21.187266,6.356181 c 0,-5.064276 -1.636416,-8.802193 -4.909246,-11.213751 -2.721618,-1.998149 -6.201153,-2.911097 -10.438606,-2.738842 l -0.723469,32.401022 c 4.40971,-0.27561 8.009822,-1.70532 10.80034,-4.28913 3.513989,-3.20393 5.270981,-7.9237 5.270981,-14.159299 z M 207.78771,50.416971 c -0.48232,7.234676 -4.64652,21.966221 -5.57669,41.12089 -0.48231,11.782189 1.84548,26.198419 1.60432,40.943379 -9.94851,0.48264 -17.20989,-0.12807 -24.47007,0.38422 l 2.55698,-25.87639 -18.24172,26.25154 -19.68866,-26.04484 2.55698,24.90125 -25.51937,-0.76843 c -0.24116,-7.88925 3.13593,-21.22172 2.44691,-39.997429 -0.48231,-10.817569 -4.43455,-25.095994 -5.70923,-40.529973 l 32.68424,1.152652 c 1.03353,2.514912 2.80775,6.580111 5.32266,12.195598 1.92925,3.996299 4.56474,8.716066 7.90647,14.159299 1.48139,-2.342658 4.203,-7.183001 8.16485,-14.521032 1.41249,-2.721618 3.22116,-6.66624 5.42601,-11.833865 z"
         id="path46"
         style="font-size:105.833px;font-family:'Showcard Gothic';-inkscape-font-specification:'Showcard Gothic';stroke:#000000;stroke-width:0.705556"
         aria-label="DM"
         sodipodi:nodetypes="scscccscssccccsccccccccccccccccc"
         inkscape:label="tekst" />
    </clipPath>
    <clipPath
       clipPathUnits="userSpaceOnUse"
       id="clipPath46">
      <path
         d="m 116.8935,92.26133 c 0,12.43675 -3.85849,22.22079 -11.57548,29.35212 -7.958145,7.40693 -19.171896,11.1104 -33.641252,11.1104 -9.301729,0 -19.558468,-1.23352 -24.622744,-2.16369 L 48.732506,92.93312 C 48.284643,83.08018 46.322398,67.568233 45.151069,50.239456 52.6269,49.171482 61.58267,50.558581 69.71307,50.558581 c 14.503808,0 25.855359,3.376181 34.05466,10.128549 8.75051,7.234677 13.12577,17.75941 13.12577,31.5742 z m -21.187266,6.356181 c 0,-5.064276 -1.636416,-8.802193 -4.909246,-11.213751 -2.721618,-1.998149 -6.201153,-2.911097 -10.438606,-2.738842 l -0.723469,32.401022 c 4.40971,-0.27561 8.009822,-1.70532 10.80034,-4.28913 3.513989,-3.20393 5.270981,-7.9237 5.270981,-14.159299 z M 207.78771,50.416971 c -0.48232,7.234676 -4.64652,21.966221 -5.57669,41.12089 -0.48231,11.782189 1.84548,26.198419 1.60432,40.943379 -9.94851,0.48264 -17.20989,-0.12807 -24.47007,0.38422 l 2.55698,-25.87639 -18.24172,26.25154 -19.68866,-26.04484 2.55698,24.90125 -25.51937,-0.76843 c -0.24116,-7.88925 3.13593,-21.22172 2.44691,-39.997429 -0.48231,-10.817569 -4.43455,-25.095994 -5.70923,-40.529973 l 32.68424,1.152652 c 1.03353,2.514912 2.80775,6.580111 5.32266,12.195598 1.92925,3.996299 4.56474,8.716066 7.90647,14.159299 1.48139,-2.342658 4.203,-7.183001 8.16485,-14.521032 1.41249,-2.721618 3.22116,-6.66624 5.42601,-11.833865 z"
         id="path47"
         style="font-size:105.833px;font-family:'Showcard Gothic';-inkscape-font-specification:'Showcard Gothic';stroke:#000000;stroke-width:0.705556"
         aria-label="DM"
         sodipodi:nodetypes="scscccscssccccsccccccccccccccccc"
         inkscape:label="tekst" />
    </clipPath>
    <clipPath
       clipPathUnits="userSpaceOnUse"
       id="clipPath47">
      <path
         d="m 116.8935,92.26133 c 0,12.43675 -3.85849,22.22079 -11.57548,29.35212 -7.958145,7.40693 -19.171896,11.1104 -33.641252,11.1104 -9.301729,0 -19.558468,-1.23352 -24.622744,-2.16369 L 48.732506,92.93312 C 48.284643,83.08018 46.322398,67.568233 45.151069,50.239456 52.6269,49.171482 61.58267,50.558581 69.71307,50.558581 c 14.503808,0 25.855359,3.376181 34.05466,10.128549 8.75051,7.234677 13.12577,17.75941 13.12577,31.5742 z m -21.187266,6.356181 c 0,-5.064276 -1.636416,-8.802193 -4.909246,-11.213751 -2.721618,-1.998149 -6.201153,-2.911097 -10.438606,-2.738842 l -0.723469,32.401022 c 4.40971,-0.27561 8.009822,-1.70532 10.80034,-4.28913 3.513989,-3.20393 5.270981,-7.9237 5.270981,-14.159299 z M 207.78771,50.416971 c -0.48232,7.234676 -4.64652,21.966221 -5.57669,41.12089 -0.48231,11.782189 1.84548,26.198419 1.60432,40.943379 -9.94851,0.48264 -17.20989,-0.12807 -24.47007,0.38422 l 2.55698,-25.87639 -18.24172,26.25154 -19.68866,-26.04484 2.55698,24.90125 -25.51937,-0.76843 c -0.24116,-7.88925 3.13593,-21.22172 2.44691,-39.997429 -0.48231,-10.817569 -4.43455,-25.095994 -5.70923,-40.529973 l 32.68424,1.152652 c 1.03353,2.514912 2.80775,6.580111 5.32266,12.195598 1.92925,3.996299 4.56474,8.716066 7.90647,14.159299 1.48139,-2.342658 4.203,-7.183001 8.16485,-14.521032 1.41249,-2.721618 3.22116,-6.66624 5.42601,-11.833865 z"
         id="path48"
         style="font-size:105.833px;font-family:'Showcard Gothic';-inkscape-font-specification:'Showcard Gothic';stroke:#000000;stroke-width:0.705556"
         aria-label="DM"
         sodipodi:nodetypes="scscccscssccccsccccccccccccccccc"
         inkscape:label="tekst" />
    </clipPath>
  </defs>
  <g
     inkscape:label="Sloj 1"
     inkscape:groupmode="layer"
     id="layer1">
    <path
       style="fill:none;stroke:#9809d6;stroke-width:6.00001;stroke-linecap:round;stroke-linejoin:bevel"
       d="m 52.253557,40.269083 c -9.733506,11.270375 -19.467013,22.540751 -18.634426,34.003351 0.832586,11.4626 12.230805,23.116957 13.639515,39.894666 1.40871,16.77771 -7.171971,38.67766 -15.752825,60.57805"
       id="path1"
       inkscape:path-effect="#path-effect3"
       inkscape:original-d="M 52.253557,40.269083 C 42.520052,51.539459 32.786544,62.809834 23.05304,74.080208 34.451716,85.735035 45.849934,97.389393 57.248382,109.04398 48.667357,130.94481 40.086674,152.84476 31.505821,174.74515"
       inkscape:label="krivulja1" />
    <path
       style="display:inline;fill:none;stroke:#240e5f;stroke-width:3;stroke-linecap:round;stroke-linejoin:bevel;stroke-dasharray:none;stroke-opacity:1"
       d="m 149.46054,32.584736 c 15.49677,35.604141 30.99354,71.208284 34.38737,91.828004 3.39383,20.61971 -5.31492,26.25479 -6.65963,32.85059 -1.3447,6.59581 4.67459,14.15194 10.69399,21.70821"
       id="path3"
       inkscape:path-effect="#path-effect4"
       inkscape:original-d="m 149.46054,32.584736 c 15.49677,35.60414 30.99353,71.208284 46.4903,106.812414 -8.7091,5.63531 -17.41785,11.27038 -26.12678,16.90557 6.01952,7.55642 12.03881,15.11255 18.05821,22.66882"
       inkscape:label="krivulja2" />
    <g
       id="g59"
       inkscape:label="blend">
      <path
         d="m 149.461,32.5847 c 5.864,13.4733 11.728,26.9465 16.936,39.6078 6.734,16.3677 12.371,31.3785 15.495,43.2775 0.845,3.221 1.507,6.213 1.956,8.943 3.394,20.619 -5.315,26.255 -6.66,32.85 -1.344,6.596 4.675,14.152 10.694,21.709"
         style="display:inline;fill:none;stroke:#240e5f;stroke-width:3;stroke-linecap:round;stroke-linejoin:bevel;stroke-dasharray:none;stroke-opacity:1"
         id="path15" />
      <path
         d="m 147.09,32.7722 c 5.483,13.4195 10.967,26.839 16.069,39.471 6.589,16.2481 12.367,31.1768 15.449,43.1958 0.83,3.207 1.475,6.195 1.907,8.93 3.292,20.344 -5.277,26.096 -6.682,32.797 -1.372,6.606 4.432,14.154 10.235,21.702"
         style="display:inline;fill:none;stroke:#240e5f;stroke-width:3;stroke-linecap:round;stroke-linejoin:bevel;stroke-dasharray:none;stroke-opacity:1"
         id="path16" />
      <path
         d="m 144.719,32.9596 c 5.103,13.3658 10.207,26.7316 15.201,39.3343 6.446,16.1285 12.364,30.9751 15.404,43.1131 0.816,3.194 1.443,6.178 1.859,8.918 3.19,20.068 -5.239,25.938 -6.705,32.743 -1.399,6.618 4.188,14.158 9.776,21.697"
         style="display:inline;fill:none;stroke:#240e5f;stroke-width:3;stroke-linecap:round;stroke-linejoin:bevel;stroke-dasharray:none;stroke-opacity:1"
         id="path17" />
      <path
         d="m 142.348,33.147 c 4.723,13.3121 9.446,26.6241 14.334,39.1977 6.301,16.0088 12.36,30.7743 15.359,43.0303 0.8,3.181 1.41,6.161 1.809,8.905 3.088,19.794 -5.201,25.781 -6.727,32.691 -1.427,6.628 3.945,14.16 9.317,21.691"
         style="display:inline;fill:none;stroke:#240e5f;stroke-width:3;stroke-linecap:round;stroke-linejoin:bevel;stroke-dasharray:none;stroke-opacity:1"
         id="path18" />
      <path
         d="m 139.977,33.3344 c 4.342,13.2584 8.685,26.5167 13.466,39.061 6.158,15.8892 12.357,30.5726 15.314,42.9476 0.785,3.169 1.379,6.144 1.76,8.893 2.986,19.518 -5.162,25.623 -6.749,32.638 -1.454,6.638 3.702,14.162 8.858,21.685"
         style="display:inline;fill:none;stroke:#240e5f;stroke-width:3;stroke-linecap:round;stroke-linejoin:bevel;stroke-dasharray:none;stroke-opacity:1"
         id="path19" />
      <path
         d="m 137.606,33.5219 c 3.962,13.2046 7.924,26.4092 12.599,38.9242 6.014,15.7696 12.353,30.3709 15.268,42.8649 0.77,3.156 1.347,6.127 1.711,8.881 2.885,19.243 -5.124,25.465 -6.771,32.584 -1.482,6.65 3.459,14.165 8.399,21.68"
         style="display:inline;fill:none;stroke:#240e5f;stroke-width:3;stroke-linecap:round;stroke-linejoin:bevel;stroke-dasharray:none;stroke-opacity:1"
         id="path20" />
      <path
         d="m 135.235,33.7093 c 3.582,13.1508 7.163,26.3017 11.731,38.7876 5.87,15.6498 12.35,30.1691 15.223,42.7831 0.755,3.142 1.315,6.109 1.663,8.868 2.782,18.967 -5.086,25.307 -6.794,32.531 -1.509,6.66 3.215,14.167 7.94,21.674"
         style="display:inline;fill:none;stroke:#240e5f;stroke-width:3;stroke-linecap:round;stroke-linejoin:bevel;stroke-dasharray:none;stroke-opacity:1"
         id="path21" />
      <path
         d="m 132.864,33.8967 c 3.201,13.0971 6.403,26.1943 10.864,38.6509 5.726,15.5302 12.346,29.9684 15.178,42.7004 0.739,3.129 1.282,6.092 1.613,8.856 2.681,18.692 -5.048,25.149 -6.815,32.477 -1.537,6.671 2.971,14.17 7.48,21.669"
         style="display:inline;fill:none;stroke:#240e5f;stroke-width:3;stroke-linecap:round;stroke-linejoin:bevel;stroke-dasharray:none;stroke-opacity:1"
         id="path22" />
      <path
         d="m 130.493,34.0841 c 2.821,13.0434 5.642,26.0869 9.996,38.5142 5.582,15.4106 12.343,29.7667 15.133,42.6177 0.724,3.116 1.251,6.075 1.564,8.844 2.579,18.417 -5.009,24.991 -6.837,32.424 -1.565,6.682 2.728,14.172 7.021,21.663"
         style="display:inline;fill:none;stroke:#240e5f;stroke-width:3;stroke-linecap:round;stroke-linejoin:bevel;stroke-dasharray:none;stroke-opacity:1"
         id="path23" />
      <path
         d="m 128.122,34.2715 c 2.441,12.9897 4.881,25.9794 9.129,38.3776 5.438,15.2909 12.34,29.5649 15.087,42.5349 0.71,3.104 1.219,6.058 1.516,8.832 2.477,18.141 -4.972,24.833 -6.86,32.37 -1.592,6.693 2.485,14.175 6.562,21.658"
         style="display:inline;fill:none;stroke:#240e5f;stroke-width:3;stroke-linecap:round;stroke-linejoin:bevel;stroke-dasharray:none;stroke-opacity:1"
         id="path24" />
      <path
         d="m 125.752,34.459 c 2.059,12.9359 4.119,25.8719 8.26,38.2408 5.294,15.1713 12.337,29.3632 15.042,42.4532 0.695,3.09 1.187,6.04 1.467,8.819 2.375,17.866 -4.933,24.674 -6.882,32.317 -1.62,6.703 2.241,14.177 6.103,21.652"
         style="display:inline;fill:none;stroke:#240e5f;stroke-width:3;stroke-linecap:round;stroke-linejoin:bevel;stroke-dasharray:none;stroke-opacity:1"
         id="path25" />
      <path
         d="m 123.381,34.6464 c 1.679,12.8822 3.359,25.7645 7.393,38.1041 5.15,15.0517 12.333,29.1615 14.997,42.3705 0.679,3.077 1.155,6.023 1.417,8.807 2.273,17.59 -4.895,24.516 -6.904,32.264 -1.647,6.714 1.998,14.18 5.644,21.646"
         style="display:inline;fill:none;stroke:#240e5f;stroke-width:3;stroke-linecap:round;stroke-linejoin:bevel;stroke-dasharray:none;stroke-opacity:1"
         id="path26" />
      <path
         d="m 121.01,34.8338 c 1.299,12.8285 2.598,25.657 6.526,37.9674 5.006,14.9321 12.329,28.9608 14.951,42.2878 0.664,3.064 1.123,6.006 1.369,8.795 2.171,17.315 -4.857,24.358 -6.927,32.21 -1.675,6.725 1.755,14.183 5.185,21.641"
         style="display:inline;fill:none;stroke:#240e5f;stroke-width:3;stroke-linecap:round;stroke-linejoin:bevel;stroke-dasharray:none;stroke-opacity:1"
         id="path27" />
      <path
         d="m 118.639,35.0212 c 0.918,12.7748 1.837,25.5496 5.658,37.8308 4.862,14.8124 12.326,28.759 14.906,42.205 0.649,3.052 1.091,5.989 1.32,8.782 2.069,17.04 -4.819,24.201 -6.949,32.158 -1.702,6.735 1.512,14.185 4.725,21.634"
         style="display:inline;fill:none;stroke:#240e5f;stroke-width:3;stroke-linecap:round;stroke-linejoin:bevel;stroke-dasharray:none;stroke-opacity:1"
         id="path28" />
      <path
         d="m 116.268,35.2087 c 0.538,12.721 1.076,25.4421 4.791,37.694 4.718,14.6928 12.322,28.5573 14.86,42.1223 0.634,3.039 1.059,5.972 1.271,8.77 1.968,16.765 -4.78,24.043 -6.971,32.104 -1.73,6.747 1.268,14.188 4.266,21.629"
         style="display:inline;fill:none;stroke:#240e5f;stroke-width:3;stroke-linecap:round;stroke-linejoin:bevel;stroke-dasharray:none;stroke-opacity:1"
         id="path29" />
      <path
         d="m 113.897,35.3961 c 0.158,12.6673 0.316,25.3346 3.923,37.5573 4.574,14.5732 12.319,28.3556 14.816,42.0406 0.618,3.025 1.027,5.954 1.222,8.757 1.865,16.489 -4.743,23.885 -6.994,32.051 -1.757,6.757 1.025,14.19 3.807,21.623"
         style="display:inline;fill:none;stroke:#240e5f;stroke-width:3;stroke-linecap:round;stroke-linejoin:bevel;stroke-dasharray:none;stroke-opacity:1"
         id="path30" />
      <path
         d="m 111.526,35.5835 c -0.223,12.6136 -0.445,25.2272 3.056,37.4207 4.43,14.4535 12.315,28.1548 14.77,41.9578 0.604,3.012 0.995,5.937 1.173,8.745 1.764,16.214 -4.704,23.727 -7.016,31.997 -1.784,6.768 0.782,14.193 3.348,21.618"
         style="display:inline;fill:none;stroke:#240e5f;stroke-width:3;stroke-linecap:round;stroke-linejoin:bevel;stroke-dasharray:none;stroke-opacity:1"
         id="path31" />
      <path
         d="m 109.155,35.7709 c -0.603,12.5599 -1.206,25.1198 2.188,37.284 4.287,14.3339 12.312,27.9531 14.725,41.8751 0.589,3 0.963,5.92 1.124,8.733 1.662,15.938 -4.666,23.569 -7.038,31.944 -1.812,6.778 0.539,14.195 2.889,21.612"
         style="display:inline;fill:none;stroke:#240e5f;stroke-width:3;stroke-linecap:round;stroke-linejoin:bevel;stroke-dasharray:none;stroke-opacity:1"
         id="path32" />
      <path
         d="m 106.784,35.9584 c -0.983,12.5061 -1.967,25.0122 1.321,37.1472 4.142,14.2143 12.309,27.7514 14.68,41.7924 0.573,2.987 0.93,5.903 1.074,8.721 1.56,15.663 -4.627,23.411 -7.06,31.89 -1.839,6.79 0.295,14.198 2.43,21.607"
         style="display:inline;fill:none;stroke:#240e5f;stroke-width:3;stroke-linecap:round;stroke-linejoin:bevel;stroke-dasharray:none;stroke-opacity:1"
         id="path33" />
      <path
         d="m 104.413,36.1458 c -1.364,12.4524 -2.728,24.9048 0.453,37.0106 3.999,14.0946 12.306,27.5496 14.635,41.7096 0.558,2.974 0.899,5.886 1.026,8.709 1.458,15.387 -4.59,23.252 -7.083,31.837 -1.867,6.8 0.052,14.2 1.971,21.601"
         style="display:inline;fill:none;stroke:#240e5f;stroke-width:3;stroke-linecap:round;stroke-linejoin:bevel;stroke-dasharray:none;stroke-opacity:1"
         id="path34" />
      <path
         d="m 102.042,36.3332 c -1.744,12.3987 -3.4883,24.7973 -0.414,36.8739 3.854,13.975 12.302,27.3489 14.589,41.6279 0.543,2.96 0.867,5.868 0.977,8.696 1.356,15.112 -4.551,23.094 -7.105,31.784 -1.894,6.81 -0.191,14.203 1.512,21.595"
         style="display:inline;fill:none;stroke:#240e5f;stroke-width:3;stroke-linecap:round;stroke-linejoin:bevel;stroke-dasharray:none;stroke-opacity:1"
         id="path35" />
      <path
         d="m 99.6716,36.5206 c -2.1248,12.345 -4.2497,24.6899 -1.2826,36.7372 3.711,13.8554 12.299,27.1472 14.544,41.5452 0.528,2.948 0.835,5.851 0.928,8.684 1.255,14.836 -4.513,22.936 -7.127,31.73 -1.922,6.822 -0.434,14.206 1.053,21.59"
         style="display:inline;fill:none;stroke:#240e5f;stroke-width:3;stroke-linecap:round;stroke-linejoin:bevel;stroke-dasharray:none;stroke-opacity:1"
         id="path36" />
      <path
         d="m 97.3007,36.708 c -2.5053,12.2913 -5.0106,24.5825 -2.1501,36.6006 3.5669,13.7356 12.2954,26.9454 14.4994,41.4624 0.512,2.935 0.803,5.834 0.879,8.672 1.152,14.561 -4.475,22.778 -7.15,31.677 -1.949,6.832 -0.678,14.208 0.594,21.584"
         style="display:inline;fill:none;stroke:#240e5f;stroke-width:3;stroke-linecap:round;stroke-linejoin:bevel;stroke-dasharray:none;stroke-opacity:1"
         id="path37" />
      <path
         d="m 94.9298,36.8955 c -2.8857,12.2375 -5.7714,24.4749 -3.0177,36.4638 3.423,13.616 12.2919,26.7437 14.4539,41.3797 0.498,2.922 0.771,5.817 0.83,8.659 1.05,14.286 -4.437,22.621 -7.172,31.624 -1.9765,6.843 -0.9208,14.211 0.135,21.579"
         style="display:inline;fill:none;stroke:#240e5f;stroke-width:3;stroke-linecap:round;stroke-linejoin:bevel;stroke-dasharray:none;stroke-opacity:1"
         id="path38" />
      <path
         d="m 92.5589,37.0829 c -3.2661,12.1838 -6.5323,24.3675 -3.8853,36.3271 3.2791,13.4964 12.2884,26.5425 14.4084,41.297 0.483,2.909 0.739,5.8 0.781,8.647 0.949,14.011 -4.3984,22.463 -7.1939,31.571 -2.004,6.854 -1.1641,14.213 -0.3243,21.573"
         style="display:inline;fill:none;stroke:#240e5f;stroke-width:3;stroke-linecap:round;stroke-linejoin:bevel;stroke-dasharray:none;stroke-opacity:1"
         id="path39" />
      <path
         d="m 90.188,37.2703 c -3.6466,12.13 -7.2932,24.2601 -4.7529,36.1904 3.1352,13.3768 12.2852,26.341 14.3633,41.2153 0.4676,2.895 0.7066,5.782 0.7326,8.634 0.846,13.735 -4.3609,22.305 -7.2169,31.517 -2.0314,6.865 -1.4074,14.216 -0.7833,21.567"
         style="display:inline;fill:none;stroke:#240e5f;stroke-width:3;stroke-linecap:round;stroke-linejoin:bevel;stroke-dasharray:none;stroke-opacity:1"
         id="path40" />
      <path
         d="m 87.8171,37.4577 c -4.027,12.0763 -8.054,24.1526 -5.6205,36.0538 2.9913,13.2571 12.2818,26.1394 14.3181,41.1325 0.4524,2.883 0.6749,5.765 0.6832,8.622 0.7449,13.46 -4.3223,22.147 -7.2388,31.464 -2.0589,6.875 -1.6506,14.218 -1.2424,21.561"
         style="display:inline;fill:none;stroke:#240e5f;stroke-width:3;stroke-linecap:round;stroke-linejoin:bevel;stroke-dasharray:none;stroke-opacity:1"
         id="path41" />
      <path
         d="m 85.4462,37.6452 c -4.4075,12.0225 -8.8149,24.0451 -6.4881,35.917 2.8474,13.1375 12.2784,25.9379 14.2728,41.0498 0.4373,2.87 0.643,5.748 0.6343,8.61 0.643,13.184 -4.2841,21.989 -7.261,31.411 -2.0864,6.886 -1.894,14.22 -1.7015,21.555"
         style="display:inline;fill:none;stroke:#240e5f;stroke-width:3;stroke-linecap:round;stroke-linejoin:bevel;stroke-dasharray:none;stroke-opacity:1"
         id="path42" />
      <path
         d="m 83.0753,37.8326 c -4.7879,11.9688 -9.5758,23.9377 -7.3557,35.7803 2.7035,13.0179 12.275,25.7365 14.2276,40.9671 0.4222,2.857 0.6109,5.732 0.5853,8.598 0.5411,12.909 -4.2459,21.831 -7.2833,31.357 -2.1138,6.897 -2.1372,14.224 -2.1606,21.55"
         style="display:inline;fill:none;stroke:#240e5f;stroke-width:3;stroke-linecap:round;stroke-linejoin:bevel;stroke-dasharray:none;stroke-opacity:1"
         id="path43" />
      <path
         d="m 80.7044,38.02 c -5.1683,11.9151 -10.3366,23.8302 -8.2233,35.6437 2.5595,12.8982 12.2716,25.5349 14.1824,40.8853 0.407,2.843 0.5789,5.714 0.5364,8.585 0.4391,12.633 -4.2078,21.672 -7.3057,31.304 -2.1413,6.907 -2.3805,14.226 -2.6197,21.544"
         style="display:inline;fill:none;stroke:#240e5f;stroke-width:3;stroke-linecap:round;stroke-linejoin:bevel;stroke-dasharray:none;stroke-opacity:1"
         id="path44" />
      <path
         d="m 78.3335,38.2074 c -5.5488,11.8614 -11.0975,23.7228 -9.0909,35.507 2.4156,12.7786 12.2682,25.3334 14.1371,40.8026 0.392,2.831 0.547,5.697 0.4875,8.573 0.3373,12.358 -4.1697,21.514 -7.3279,31.25 -2.1688,6.919 -2.6238,14.229 -3.0788,21.539"
         style="display:inline;fill:none;stroke:#240e5f;stroke-width:3;stroke-linecap:round;stroke-linejoin:bevel;stroke-dasharray:none;stroke-opacity:1"
         id="path45" />
      <path
         d="m 75.9626,38.3949 c -5.9292,11.8076 -11.8584,23.6153 -9.9585,35.3702 2.2717,12.659 12.2648,25.132 14.0919,40.7199 0.3768,2.818 0.5149,5.68 0.4385,8.561 0.2354,12.082 -4.1315,21.356 -7.3502,31.197 -2.1963,6.929 -2.8671,14.231 -3.5379,21.533"
         style="display:inline;fill:none;stroke:#240e5f;stroke-width:3;stroke-linecap:round;stroke-linejoin:bevel;stroke-dasharray:none;stroke-opacity:1"
         id="path49" />
      <path
         d="m 73.5917,38.5823 c -6.3096,11.7539 -12.6192,23.5078 -10.8261,35.2336 2.1278,12.5393 12.2614,24.9304 14.0467,40.6371 0.3617,2.805 0.4829,5.663 0.3895,8.549 0.1335,11.807 -4.0933,21.198 -7.3725,31.143 -2.2237,6.94 -3.1103,14.234 -3.9969,21.528"
         style="display:inline;fill:none;stroke:#240e5f;stroke-width:3;stroke-linecap:round;stroke-linejoin:bevel;stroke-dasharray:none;stroke-opacity:1"
         id="path50" />
      <path
         d="m 71.2208,38.7697 c -6.6901,11.7002 -13.3801,23.4004 -11.6937,35.0969 1.9839,12.4197 12.258,24.7289 14.0014,40.5544 0.3466,2.792 0.451,5.646 0.3406,8.537 0.0316,11.531 -4.0551,21.04 -7.3947,31.09 -2.2512,6.95 -3.3537,14.236 -4.4561,21.522"
         style="display:inline;fill:none;stroke:#240e5f;stroke-width:3;stroke-linecap:round;stroke-linejoin:bevel;stroke-dasharray:none;stroke-opacity:1"
         id="path51" />
      <path
         d="m 68.8499,38.9571 c -7.0705,11.6465 -14.141,23.293 -12.5613,34.9602 1.84,12.3001 12.2546,24.5275 13.9562,40.4727 0.3315,2.779 0.4189,5.628 0.2916,8.523 -0.0702,11.257 -4.0169,20.883 -7.417,31.037 -2.2787,6.962 -3.5969,14.239 -4.9152,21.517"
         style="display:inline;fill:none;stroke:#240e5f;stroke-width:3;stroke-linecap:round;stroke-linejoin:bevel;stroke-dasharray:none;stroke-opacity:1"
         id="path52" />
      <path
         d="M 66.479,39.1445 C 59.0281,50.7373 51.5772,62.33 53.0501,73.9681 c 1.6961,12.1804 12.2512,24.3259 13.911,40.3899 0.3163,2.766 0.3869,5.611 0.2426,8.511 -0.1721,10.981 -3.9787,20.725 -7.4393,30.984 -2.3061,6.972 -3.8402,14.241 -5.3742,21.511"
         style="display:inline;fill:none;stroke:#240e5f;stroke-width:3;stroke-linecap:round;stroke-linejoin:bevel;stroke-dasharray:none;stroke-opacity:1"
         id="path53" />
      <path
         d="M 64.1081,39.332 C 56.2767,50.871 48.4454,62.41 49.8116,74.0188 c 1.5522,12.0608 12.2478,24.1244 13.8657,40.3072 0.3013,2.753 0.355,5.594 0.1937,8.499 -0.274,10.706 -3.9406,20.567 -7.4615,30.931 -2.3336,6.982 -4.0835,14.243 -5.8334,21.505"
         style="display:inline;fill:none;stroke:#240e5f;stroke-width:3;stroke-linecap:round;stroke-linejoin:bevel;stroke-dasharray:none;stroke-opacity:1"
         id="path54" />
      <path
         d="M 61.7372,39.5194 C 53.5254,51.0047 45.3136,62.49 46.5731,74.0695 c 1.4083,11.9412 12.2444,23.923 13.8205,40.2245 0.2861,2.74 0.3229,5.577 0.1447,8.487 -0.3759,10.43 -3.9024,20.409 -7.4838,30.877 -2.3611,6.994 -4.3268,14.247 -6.2924,21.499"
         style="display:inline;fill:none;stroke:#240e5f;stroke-width:3;stroke-linecap:round;stroke-linejoin:bevel;stroke-dasharray:none;stroke-opacity:1"
         id="path55" />
      <path
         d="m 59.3663,39.7068 c -8.5922,11.4316 -17.1845,22.8631 -16.0317,34.4134 1.2644,11.8216 12.241,23.7215 13.7752,40.1418 0.2711,2.727 0.291,5.56 0.0958,8.475 -0.4777,10.155 -3.8642,20.25 -7.5061,30.824 -2.3885,7.004 -4.57,14.249 -6.7515,21.493"
         style="display:inline;fill:none;stroke:#240e5f;stroke-width:3;stroke-linecap:round;stroke-linejoin:bevel;stroke-dasharray:none;stroke-opacity:1"
         id="path56" />
      <path
         d="M 56.9954,39.8942 C 48.0227,51.2721 39.0501,62.6499 40.0961,74.171 c 1.1204,11.7018 12.2376,23.5199 13.73,40.06 0.2559,2.714 0.259,5.542 0.0468,8.462 -0.5796,9.879 -3.826,20.092 -7.5283,30.77 -2.416,7.015 -4.8133,14.252 -7.2107,21.488"
         style="display:inline;fill:none;stroke:#240e5f;stroke-width:3;stroke-linecap:round;stroke-linejoin:bevel;stroke-dasharray:none;stroke-opacity:1"
         id="path57" />
      <path
         d="m 54.6245,40.0817 c -9.3531,11.3241 -18.7062,22.6482 -17.7669,34.14 0.9765,11.5822 12.2342,23.3185 13.6848,39.9773 0.2408,2.701 0.227,5.525 -0.0022,8.45 -0.6815,9.604 -3.7878,19.934 -7.5506,30.717 -2.4435,7.026 -5.0566,14.254 -7.6697,21.482"
         style="display:inline;fill:none;stroke:#240e5f;stroke-width:3;stroke-linecap:round;stroke-linejoin:bevel;stroke-dasharray:none;stroke-opacity:1"
         id="path58" />
      <path
         d="m 52.2536,40.2691 c -9.7335,11.2704 -19.4671,22.5407 -18.6345,34.0033 0.8326,11.4626 12.2308,23.117 13.6395,39.8946 0.2257,2.688 0.195,5.508 -0.051,8.438 -0.7835,9.328 -3.7497,19.776 -7.573,30.663 -2.4709,7.037 -5.2998,14.257 -8.1288,21.477"
         style="display:inline;fill:none;stroke:#240e5f;stroke-width:3;stroke-linecap:round;stroke-linejoin:bevel;stroke-dasharray:none;stroke-opacity:1"
         id="path59" />
    </g>
  </g>
  <path
     d="m 58.970146,145.46689 q 12.69996,-0.3175 12.69996,0 0,0.10583 0.105833,-7.19665 0.105833,-7.40831 0.317499,-17.88577 0.211666,-10.47747 0.423332,-20.954937 0.211666,-10.5833 0.317499,-17.99161 l 0.105833,-7.40831 24.129924,-0.317499 V 61.329653 Q 93.154205,61.22382 86.698392,61.117987 80.348412,60.906321 66.695955,60.588822 53.149331,60.271323 44.047693,60.271323 q -8.995805,0 -8.995805,0.423332 0,0.105833 -0.105833,3.704155 -0.105833,3.598322 -0.105833,6.455813 0,2.857491 0.211666,2.857491 23.918258,0.634998 23.918258,0.634998 z M 155.2782,101.96953 v 33.33739 h -10.68914 v -33.33739 z m -50.69401,33.76072 50.69401,-0.42333 0.3175,9.73664 -51.96401,0.42333 z m 11.32413,-33.44323 V 90.010396 l 39.58154,-0.317499 -0.21166,12.276633 z M 104.16086,72.442118 h 11.74746 v 29.844902 h -11.85329 z m 0,-10.794966 h 51.11734 v 10.794966 h -51.11734 z"
     id="text59"
     style="font-size:105.833px;font-family:Tea;-inkscape-font-specification:Tea;stroke:#000000;stroke-width:3;stroke-linecap:round;stroke-linejoin:bevel"
     inkscape:label="tekst"
     aria-label="TS" />
</svg>
